ISO-10303-21;
HEADER;
/* Generated by software containing ST-Developer
 * from STEP Tools, Inc. (www.steptools.com) 
 */
/* OPTION: using custom renumber hook */

FILE_DESCRIPTION(
/* description */ ('STEP AP242 Edition 2',
'CAx-IF Rec.Pracs.---Representation and Presentation of Product Manufa
cturing Information (PMI)---4.0---2014-10-13',
'CAx-IF Rec.Pracs.---3D Tessellated Geometry---0.4---2014-09-14','2;1',
'CAx-IF Rec.Pracs.---User Defined Attributes---1.5---2016-08-15'),
/* implementation_level */ '2;1');

FILE_NAME(
/* name */ 'SCREW_PCB_TOUCHER - Part 1',
/* time_stamp */ '2026-08-24T19:21:50Z',
/* author */ (''),
/* organization */ (''),
/* preprocessor_version */ 'ST-DEVELOPER v20',
/* originating_system */ 'ONSHAPE BY PTC INC, 1.219',
/* authorisation */ '  ');

FILE_SCHEMA (('AP242_MANAGED_MODEL_BASED_3D_ENGINEERING_MIM_LF { 1 0 10303 442 3 1 4 }'));
ENDSEC;

DATA;
#10=SHAPE_REPRESENTATION_RELATIONSHIP('','',#259,#11);
#11=ADVANCED_BREP_SHAPE_REPRESENTATION('',(#257),#427);
#12=LINE('',#369,#24);
#13=LINE('',#372,#25);
#14=LINE('',#374,#26);
#15=LINE('',#376,#27);
#16=LINE('',#378,#28);
#17=LINE('',#380,#29);
#18=LINE('',#382,#30);
#19=LINE('',#384,#31);
#20=LINE('',#386,#32);
#21=LINE('',#388,#33);
#22=LINE('',#405,#34);
#23=LINE('',#406,#35);
#24=VECTOR('',#300,1.);
#25=VECTOR('',#301,1.);
#26=VECTOR('',#302,1.);
#27=VECTOR('',#303,1.);
#28=VECTOR('',#306,1.);
#29=VECTOR('',#307,1.);
#30=VECTOR('',#308,1.);
#31=VECTOR('',#311,1.);
#32=VECTOR('',#312,1.);
#33=VECTOR('',#313,1.);
#34=VECTOR('',#334,1.);
#35=VECTOR('',#335,1.);
#36=PLANE('',#264);
#37=PLANE('',#265);
#38=PLANE('',#266);
#39=PLANE('',#276);
#40=PLANE('',#280);
#41=PLANE('',#282);
#42=PLANE('',#285);
#43=PLANE('',#289);
#44=ORIENTED_EDGE('',*,*,#96,.F.);
#45=ORIENTED_EDGE('',*,*,#97,.T.);
#46=ORIENTED_EDGE('',*,*,#98,.F.);
#47=ORIENTED_EDGE('',*,*,#99,.F.);
#48=ORIENTED_EDGE('',*,*,#100,.T.);
#49=ORIENTED_EDGE('',*,*,#101,.T.);
#50=ORIENTED_EDGE('',*,*,#102,.T.);
#51=ORIENTED_EDGE('',*,*,#103,.F.);
#52=ORIENTED_EDGE('',*,*,#104,.F.);
#53=ORIENTED_EDGE('',*,*,#99,.T.);
#54=ORIENTED_EDGE('',*,*,#105,.T.);
#55=ORIENTED_EDGE('',*,*,#106,.F.);
#56=ORIENTED_EDGE('',*,*,#107,.F.);
#57=ORIENTED_EDGE('',*,*,#103,.T.);
#58=ORIENTED_EDGE('',*,*,#108,.T.);
#59=ORIENTED_EDGE('',*,*,#109,.F.);
#60=ORIENTED_EDGE('',*,*,#110,.T.);
#61=ORIENTED_EDGE('',*,*,#111,.F.);
#62=ORIENTED_EDGE('',*,*,#112,.T.);
#63=ORIENTED_EDGE('',*,*,#113,.F.);
#64=ORIENTED_EDGE('',*,*,#114,.F.);
#65=ORIENTED_EDGE('',*,*,#101,.F.);
#66=ORIENTED_EDGE('',*,*,#115,.T.);
#67=ORIENTED_EDGE('',*,*,#106,.T.);
#68=ORIENTED_EDGE('',*,*,#116,.T.);
#69=ORIENTED_EDGE('',*,*,#117,.F.);
#70=ORIENTED_EDGE('',*,*,#100,.F.);
#71=ORIENTED_EDGE('',*,*,#104,.T.);
#72=ORIENTED_EDGE('',*,*,#107,.T.);
#73=ORIENTED_EDGE('',*,*,#115,.F.);
#74=ORIENTED_EDGE('',*,*,#118,.F.);
#75=ORIENTED_EDGE('',*,*,#112,.F.);
#76=ORIENTED_EDGE('',*,*,#110,.F.);
#77=ORIENTED_EDGE('',*,*,#108,.F.);
#78=ORIENTED_EDGE('',*,*,#116,.F.);
#79=ORIENTED_EDGE('',*,*,#98,.T.);
#80=ORIENTED_EDGE('',*,*,#114,.T.);
#81=ORIENTED_EDGE('',*,*,#105,.F.);
#82=ORIENTED_EDGE('',*,*,#102,.F.);
#83=ORIENTED_EDGE('',*,*,#113,.T.);
#84=ORIENTED_EDGE('',*,*,#111,.T.);
#85=ORIENTED_EDGE('',*,*,#109,.T.);
#86=ORIENTED_EDGE('',*,*,#117,.T.);
#87=ORIENTED_EDGE('',*,*,#96,.T.);
#88=ORIENTED_EDGE('',*,*,#118,.T.);
#89=ORIENTED_EDGE('',*,*,#119,.F.);
#90=ORIENTED_EDGE('',*,*,#119,.T.);
#91=ORIENTED_EDGE('',*,*,#120,.F.);
#92=ORIENTED_EDGE('',*,*,#121,.F.);
#93=ORIENTED_EDGE('',*,*,#120,.T.);
#94=ORIENTED_EDGE('',*,*,#121,.T.);
#95=ORIENTED_EDGE('',*,*,#97,.F.);
#96=EDGE_CURVE('',#122,#122,#144,.T.);
#97=EDGE_CURVE('',#123,#123,#145,.T.);
#98=EDGE_CURVE('',#124,#125,#12,.T.);
#99=EDGE_CURVE('',#126,#124,#13,.T.);
#100=EDGE_CURVE('',#126,#127,#14,.T.);
#101=EDGE_CURVE('',#127,#125,#15,.T.);
#102=EDGE_CURVE('',#124,#128,#16,.T.);
#103=EDGE_CURVE('',#129,#128,#17,.T.);
#104=EDGE_CURVE('',#126,#129,#18,.T.);
#105=EDGE_CURVE('',#128,#130,#19,.T.);
#106=EDGE_CURVE('',#131,#130,#20,.T.);
#107=EDGE_CURVE('',#129,#131,#21,.T.);
#108=EDGE_CURVE('',#132,#132,#146,.T.);
#109=EDGE_CURVE('',#133,#133,#147,.T.);
#110=EDGE_CURVE('',#134,#134,#148,.T.);
#111=EDGE_CURVE('',#135,#135,#149,.T.);
#112=EDGE_CURVE('',#136,#136,#150,.T.);
#113=EDGE_CURVE('',#137,#137,#151,.T.);
#114=EDGE_CURVE('',#125,#130,#22,.T.);
#115=EDGE_CURVE('',#127,#131,#23,.T.);
#116=EDGE_CURVE('',#138,#138,#152,.T.);
#117=EDGE_CURVE('',#139,#139,#153,.T.);
#118=EDGE_CURVE('',#140,#140,#154,.T.);
#119=EDGE_CURVE('',#141,#141,#155,.T.);
#120=EDGE_CURVE('',#142,#142,#156,.T.);
#121=EDGE_CURVE('',#143,#143,#157,.T.);
#122=VERTEX_POINT('',#365);
#123=VERTEX_POINT('',#367);
#124=VERTEX_POINT('',#370);
#125=VERTEX_POINT('',#371);
#126=VERTEX_POINT('',#373);
#127=VERTEX_POINT('',#375);
#128=VERTEX_POINT('',#379);
#129=VERTEX_POINT('',#381);
#130=VERTEX_POINT('',#385);
#131=VERTEX_POINT('',#387);
#132=VERTEX_POINT('',#391);
#133=VERTEX_POINT('',#393);
#134=VERTEX_POINT('',#396);
#135=VERTEX_POINT('',#398);
#136=VERTEX_POINT('',#401);
#137=VERTEX_POINT('',#403);
#138=VERTEX_POINT('',#409);
#139=VERTEX_POINT('',#411);
#140=VERTEX_POINT('',#414);
#141=VERTEX_POINT('',#418);
#142=VERTEX_POINT('',#421);
#143=VERTEX_POINT('',#424);
#144=CIRCLE('',#262,0.00454145188432738);
#145=CIRCLE('',#263,0.00454145188432738);
#146=CIRCLE('',#268,0.0011);
#147=CIRCLE('',#269,0.0011);
#148=CIRCLE('',#271,0.0011);
#149=CIRCLE('',#272,0.0011);
#150=CIRCLE('',#274,0.0011);
#151=CIRCLE('',#275,0.0011);
#152=CIRCLE('',#278,0.0011);
#153=CIRCLE('',#279,0.0011);
#154=CIRCLE('',#281,0.00654145188432738);
#155=CIRCLE('',#284,0.00654145188432738);
#156=CIRCLE('',#286,0.00275);
#157=CIRCLE('',#288,0.00275);
#158=EDGE_LOOP('',(#44));
#159=EDGE_LOOP('',(#45));
#160=EDGE_LOOP('',(#46,#47,#48,#49));
#161=EDGE_LOOP('',(#50,#51,#52,#53));
#162=EDGE_LOOP('',(#54,#55,#56,#57));
#163=EDGE_LOOP('',(#58));
#164=EDGE_LOOP('',(#59));
#165=EDGE_LOOP('',(#60));
#166=EDGE_LOOP('',(#61));
#167=EDGE_LOOP('',(#62));
#168=EDGE_LOOP('',(#63));
#169=EDGE_LOOP('',(#64,#65,#66,#67));
#170=EDGE_LOOP('',(#68));
#171=EDGE_LOOP('',(#69));
#172=EDGE_LOOP('',(#70,#71,#72,#73));
#173=EDGE_LOOP('',(#74));
#174=EDGE_LOOP('',(#75));
#175=EDGE_LOOP('',(#76));
#176=EDGE_LOOP('',(#77));
#177=EDGE_LOOP('',(#78));
#178=EDGE_LOOP('',(#79,#80,#81,#82));
#179=EDGE_LOOP('',(#83));
#180=EDGE_LOOP('',(#84));
#181=EDGE_LOOP('',(#85));
#182=EDGE_LOOP('',(#86));
#183=EDGE_LOOP('',(#87));
#184=EDGE_LOOP('',(#88));
#185=EDGE_LOOP('',(#89));
#186=EDGE_LOOP('',(#90));
#187=EDGE_LOOP('',(#91));
#188=EDGE_LOOP('',(#92));
#189=EDGE_LOOP('',(#93));
#190=EDGE_LOOP('',(#94));
#191=EDGE_LOOP('',(#95));
#192=FACE_BOUND('',#158,.T.);
#193=FACE_BOUND('',#159,.T.);
#194=FACE_BOUND('',#160,.T.);
#195=FACE_BOUND('',#161,.T.);
#196=FACE_BOUND('',#162,.T.);
#197=FACE_BOUND('',#163,.T.);
#198=FACE_BOUND('',#164,.T.);
#199=FACE_BOUND('',#165,.T.);
#200=FACE_BOUND('',#166,.T.);
#201=FACE_BOUND('',#167,.T.);
#202=FACE_BOUND('',#168,.T.);
#203=FACE_BOUND('',#169,.T.);
#204=FACE_BOUND('',#170,.T.);
#205=FACE_BOUND('',#171,.T.);
#206=FACE_BOUND('',#172,.T.);
#207=FACE_BOUND('',#173,.T.);
#208=FACE_BOUND('',#174,.T.);
#209=FACE_BOUND('',#175,.T.);
#210=FACE_BOUND('',#176,.T.);
#211=FACE_BOUND('',#177,.T.);
#212=FACE_BOUND('',#178,.T.);
#213=FACE_BOUND('',#179,.T.);
#214=FACE_BOUND('',#180,.T.);
#215=FACE_BOUND('',#181,.T.);
#216=FACE_BOUND('',#182,.T.);
#217=FACE_BOUND('',#183,.T.);
#218=FACE_BOUND('',#184,.T.);
#219=FACE_BOUND('',#185,.T.);
#220=FACE_BOUND('',#186,.T.);
#221=FACE_BOUND('',#187,.T.);
#222=FACE_BOUND('',#188,.T.);
#223=FACE_BOUND('',#189,.T.);
#224=FACE_BOUND('',#190,.T.);
#225=FACE_BOUND('',#191,.T.);
#226=CYLINDRICAL_SURFACE('',#261,0.00454145188432738);
#227=CYLINDRICAL_SURFACE('',#267,0.0011);
#228=CYLINDRICAL_SURFACE('',#270,0.0011);
#229=CYLINDRICAL_SURFACE('',#273,0.0011);
#230=CYLINDRICAL_SURFACE('',#277,0.0011);
#231=CYLINDRICAL_SURFACE('',#283,0.00654145188432738);
#232=CYLINDRICAL_SURFACE('',#287,0.00275);
#233=ADVANCED_FACE('',(#192,#193),#226,.F.);
#234=ADVANCED_FACE('',(#194),#36,.T.);
#235=ADVANCED_FACE('',(#195),#37,.F.);
#236=ADVANCED_FACE('',(#196),#38,.F.);
#237=ADVANCED_FACE('',(#197,#198),#227,.F.);
#238=ADVANCED_FACE('',(#199,#200),#228,.F.);
#239=ADVANCED_FACE('',(#201,#202),#229,.F.);
#240=ADVANCED_FACE('',(#203),#39,.T.);
#241=ADVANCED_FACE('',(#204,#205),#230,.F.);
#242=ADVANCED_FACE('',(#206,#207,#208,#209,#210,#211),#40,.T.);
#243=ADVANCED_FACE('',(#212,#213,#214,#215,#216,#217),#41,.F.);
#244=ADVANCED_FACE('',(#218,#219),#231,.T.);
#245=ADVANCED_FACE('',(#220,#221),#42,.T.);
#246=ADVANCED_FACE('',(#222,#223),#232,.F.);
#247=ADVANCED_FACE('',(#224,#225),#43,.F.);
#248=CLOSED_SHELL('',(#233,#234,#235,#236,#237,#238,#239,#240,#241,#242,
#243,#244,#245,#246,#247));
#249=STYLED_ITEM('',(#250),#257);
#250=PRESENTATION_STYLE_ASSIGNMENT((#251));
#251=SURFACE_STYLE_USAGE(.BOTH.,#252);
#252=SURFACE_SIDE_STYLE('',(#253));
#253=SURFACE_STYLE_FILL_AREA(#254);
#254=FILL_AREA_STYLE('',(#255));
#255=FILL_AREA_STYLE_COLOUR('',#256);
#256=COLOUR_RGB('',0.615686274509804,0.811764705882353,0.929411764705882);
#257=MANIFOLD_SOLID_BREP('Part 1',#248);
#258=SHAPE_DEFINITION_REPRESENTATION(#432,#259);
#259=SHAPE_REPRESENTATION('Part 1',(#260),#427);
#260=AXIS2_PLACEMENT_3D('',#362,#290,#291);
#261=AXIS2_PLACEMENT_3D('',#363,#292,#293);
#262=AXIS2_PLACEMENT_3D('',#364,#294,#295);
#263=AXIS2_PLACEMENT_3D('',#366,#296,#297);
#264=AXIS2_PLACEMENT_3D('',#368,#298,#299);
#265=AXIS2_PLACEMENT_3D('',#377,#304,#305);
#266=AXIS2_PLACEMENT_3D('',#383,#309,#310);
#267=AXIS2_PLACEMENT_3D('',#389,#314,#315);
#268=AXIS2_PLACEMENT_3D('',#390,#316,#317);
#269=AXIS2_PLACEMENT_3D('',#392,#318,#319);
#270=AXIS2_PLACEMENT_3D('',#394,#320,#321);
#271=AXIS2_PLACEMENT_3D('',#395,#322,#323);
#272=AXIS2_PLACEMENT_3D('',#397,#324,#325);
#273=AXIS2_PLACEMENT_3D('',#399,#326,#327);
#274=AXIS2_PLACEMENT_3D('',#400,#328,#329);
#275=AXIS2_PLACEMENT_3D('',#402,#330,#331);
#276=AXIS2_PLACEMENT_3D('',#404,#332,#333);
#277=AXIS2_PLACEMENT_3D('',#407,#336,#337);
#278=AXIS2_PLACEMENT_3D('',#408,#338,#339);
#279=AXIS2_PLACEMENT_3D('',#410,#340,#341);
#280=AXIS2_PLACEMENT_3D('',#412,#342,#343);
#281=AXIS2_PLACEMENT_3D('',#413,#344,#345);
#282=AXIS2_PLACEMENT_3D('',#415,#346,#347);
#283=AXIS2_PLACEMENT_3D('',#416,#348,#349);
#284=AXIS2_PLACEMENT_3D('',#417,#350,#351);
#285=AXIS2_PLACEMENT_3D('',#419,#352,#353);
#286=AXIS2_PLACEMENT_3D('',#420,#354,#355);
#287=AXIS2_PLACEMENT_3D('',#422,#356,#357);
#288=AXIS2_PLACEMENT_3D('',#423,#358,#359);
#289=AXIS2_PLACEMENT_3D('',#425,#360,#361);
#290=DIRECTION('',(0.,0.,1.));
#291=DIRECTION('',(1.,0.,0.));
#292=DIRECTION('',(0.,0.,-1.));
#293=DIRECTION('',(-1.,0.,0.));
#294=DIRECTION('',(0.,0.,1.));
#295=DIRECTION('',(1.,0.,0.));
#296=DIRECTION('',(0.,0.,1.));
#297=DIRECTION('',(1.,0.,0.));
#298=DIRECTION('',(1.,0.,0.));
#299=DIRECTION('',(0.,0.,-1.));
#300=DIRECTION('',(0.,-1.,0.));
#301=DIRECTION('',(0.,0.,-1.));
#302=DIRECTION('',(0.,-1.,0.));
#303=DIRECTION('',(0.,0.,-1.));
#304=DIRECTION('',(0.,-1.,0.));
#305=DIRECTION('',(0.,0.,-1.));
#306=DIRECTION('',(-1.,0.,0.));
#307=DIRECTION('',(0.,0.,-1.));
#308=DIRECTION('',(-1.,0.,0.));
#309=DIRECTION('',(1.,0.,0.));
#310=DIRECTION('',(0.,0.,-1.));
#311=DIRECTION('',(0.,-1.,0.));
#312=DIRECTION('',(0.,0.,-1.));
#313=DIRECTION('',(0.,-1.,0.));
#314=DIRECTION('',(0.,0.,-1.));
#315=DIRECTION('',(-1.,0.,0.));
#316=DIRECTION('',(0.,0.,1.));
#317=DIRECTION('',(1.,0.,0.));
#318=DIRECTION('',(0.,0.,1.));
#319=DIRECTION('',(1.,0.,0.));
#320=DIRECTION('',(0.,0.,-1.));
#321=DIRECTION('',(-1.,0.,0.));
#322=DIRECTION('',(0.,0.,1.));
#323=DIRECTION('',(1.,0.,0.));
#324=DIRECTION('',(0.,0.,1.));
#325=DIRECTION('',(1.,0.,0.));
#326=DIRECTION('',(0.,0.,-1.));
#327=DIRECTION('',(-1.,0.,0.));
#328=DIRECTION('',(0.,0.,1.));
#329=DIRECTION('',(1.,0.,0.));
#330=DIRECTION('',(0.,0.,1.));
#331=DIRECTION('',(1.,0.,0.));
#332=DIRECTION('',(0.,-1.,0.));
#333=DIRECTION('',(0.,0.,-1.));
#334=DIRECTION('',(-1.,0.,0.));
#335=DIRECTION('',(-1.,0.,0.));
#336=DIRECTION('',(0.,0.,-1.));
#337=DIRECTION('',(-1.,0.,0.));
#338=DIRECTION('',(0.,0.,1.));
#339=DIRECTION('',(1.,0.,0.));
#340=DIRECTION('',(0.,0.,1.));
#341=DIRECTION('',(1.,0.,0.));
#342=DIRECTION('',(0.,0.,1.));
#343=DIRECTION('',(1.,0.,0.));
#344=DIRECTION('',(0.,0.,1.));
#345=DIRECTION('',(1.,0.,0.));
#346=DIRECTION('',(0.,0.,1.));
#347=DIRECTION('',(1.,0.,0.));
#348=DIRECTION('',(0.,0.,-1.));
#349=DIRECTION('',(-1.,0.,0.));
#350=DIRECTION('',(0.,0.,1.));
#351=DIRECTION('',(1.,0.,0.));
#352=DIRECTION('',(0.,0.,1.));
#353=DIRECTION('',(1.,0.,0.));
#354=DIRECTION('',(0.,0.,1.));
#355=DIRECTION('',(1.,0.,0.));
#356=DIRECTION('',(0.,0.,1.));
#357=DIRECTION('',(1.,0.,0.));
#358=DIRECTION('',(0.,0.,1.));
#359=DIRECTION('',(1.,0.,0.));
#360=DIRECTION('',(0.,0.,1.));
#361=DIRECTION('',(1.,0.,0.));
#362=CARTESIAN_POINT('',(0.,0.,0.));
#363=CARTESIAN_POINT('',(0.,2.78083725681162E-19,0.0039));
#364=CARTESIAN_POINT('',(0.,2.78083725681162E-19,0.));
#365=CARTESIAN_POINT('',(0.00454145188432738,2.78083725681162E-19,0.));
#366=CARTESIAN_POINT('',(0.,2.78083725681162E-19,0.0034));
#367=CARTESIAN_POINT('',(0.00454145188432738,2.78083725681162E-19,0.0034));
#368=CARTESIAN_POINT('',(0.01,0.,0.001));
#369=CARTESIAN_POINT('',(0.01,0.,0.));
#370=CARTESIAN_POINT('',(0.01,0.0125,0.));
#371=CARTESIAN_POINT('',(0.01,-0.0125,0.));
#372=CARTESIAN_POINT('',(0.01,0.0125,0.001));
#373=CARTESIAN_POINT('',(0.01,0.0125,0.001));
#374=CARTESIAN_POINT('',(0.01,0.,0.001));
#375=CARTESIAN_POINT('',(0.01,-0.0125,0.001));
#376=CARTESIAN_POINT('',(0.01,-0.0125,0.001));
#377=CARTESIAN_POINT('',(0.,0.0125,0.001));
#378=CARTESIAN_POINT('',(0.,0.0125,0.));
#379=CARTESIAN_POINT('',(-0.01,0.0125,0.));
#380=CARTESIAN_POINT('',(-0.01,0.0125,0.001));
#381=CARTESIAN_POINT('',(-0.01,0.0125,0.001));
#382=CARTESIAN_POINT('',(0.,0.0125,0.001));
#383=CARTESIAN_POINT('',(-0.01,0.,0.001));
#384=CARTESIAN_POINT('',(-0.01,0.,0.));
#385=CARTESIAN_POINT('',(-0.01,-0.0125,0.));
#386=CARTESIAN_POINT('',(-0.01,-0.0125,0.001));
#387=CARTESIAN_POINT('',(-0.01,-0.0125,0.001));
#388=CARTESIAN_POINT('',(-0.01,0.,0.001));
#389=CARTESIAN_POINT('',(-0.0075,-0.01,0.001));
#390=CARTESIAN_POINT('',(-0.0075,-0.01,0.001));
#391=CARTESIAN_POINT('',(-0.0064,-0.01,0.001));
#392=CARTESIAN_POINT('',(-0.0075,-0.01,0.));
#393=CARTESIAN_POINT('',(-0.0064,-0.01,0.));
#394=CARTESIAN_POINT('',(0.0075,0.01,0.001));
#395=CARTESIAN_POINT('',(0.0075,0.01,0.001));
#396=CARTESIAN_POINT('',(0.0086,0.01,0.001));
#397=CARTESIAN_POINT('',(0.0075,0.01,0.));
#398=CARTESIAN_POINT('',(0.0086,0.01,0.));
#399=CARTESIAN_POINT('',(-0.0075,0.01,0.001));
#400=CARTESIAN_POINT('',(-0.0075,0.01,0.001));
#401=CARTESIAN_POINT('',(-0.0064,0.01,0.001));
#402=CARTESIAN_POINT('',(-0.0075,0.01,0.));
#403=CARTESIAN_POINT('',(-0.0064,0.01,0.));
#404=CARTESIAN_POINT('',(0.,-0.0125,0.001));
#405=CARTESIAN_POINT('',(0.,-0.0125,0.));
#406=CARTESIAN_POINT('',(0.,-0.0125,0.001));
#407=CARTESIAN_POINT('',(0.0075,-0.01,0.001));
#408=CARTESIAN_POINT('',(0.0075,-0.01,0.001));
#409=CARTESIAN_POINT('',(0.0086,-0.01,0.001));
#410=CARTESIAN_POINT('',(0.0075,-0.01,0.));
#411=CARTESIAN_POINT('',(0.0086,-0.01,0.));
#412=CARTESIAN_POINT('',(0.,0.,0.001));
#413=CARTESIAN_POINT('',(0.,4.00548405595897E-19,0.001));
#414=CARTESIAN_POINT('',(0.00654145188432738,4.00548405595897E-19,0.001));
#415=CARTESIAN_POINT('',(0.,0.,0.));
#416=CARTESIAN_POINT('',(0.,4.00548405595897E-19,0.0039));
#417=CARTESIAN_POINT('',(0.,4.00548405595897E-19,0.0039));
#418=CARTESIAN_POINT('',(0.00654145188432738,4.00548405595897E-19,0.0039));
#419=CARTESIAN_POINT('',(0.,0.,0.0039));
#420=CARTESIAN_POINT('',(0.,5.68937340478658E-19,0.0039));
#421=CARTESIAN_POINT('',(0.00275,5.68937340478658E-19,0.0039));
#422=CARTESIAN_POINT('',(0.,5.68937340478658E-19,0.0034));
#423=CARTESIAN_POINT('',(0.,5.68937340478658E-19,0.0034));
#424=CARTESIAN_POINT('',(0.00275,5.68937340478658E-19,0.0034));
#425=CARTESIAN_POINT('',(0.,0.,0.0034));
#426=MECHANICAL_DESIGN_GEOMETRIC_PRESENTATION_REPRESENTATION('',(#249),
#427);
#427=(
GEOMETRIC_REPRESENTATION_CONTEXT(3)
GLOBAL_UNCERTAINTY_ASSIGNED_CONTEXT((#428))
GLOBAL_UNIT_ASSIGNED_CONTEXT((#431,#430,#429))
REPRESENTATION_CONTEXT('Part 1','TOP_LEVEL_ASSEMBLY_PART')
);
#428=UNCERTAINTY_MEASURE_WITH_UNIT(LENGTH_MEASURE(1.E-8),#431,
'DISTANCE_ACCURACY_VALUE','Maximum Tolerance applied to model');
#429=(
NAMED_UNIT(*)
SI_UNIT($,.STERADIAN.)
SOLID_ANGLE_UNIT()
);
#430=(
NAMED_UNIT(*)
PLANE_ANGLE_UNIT()
SI_UNIT($,.RADIAN.)
);
#431=(
LENGTH_UNIT()
NAMED_UNIT(*)
SI_UNIT($,.METRE.)
);
#432=PRODUCT_DEFINITION_SHAPE('','',#433);
#433=PRODUCT_DEFINITION('','',#435,#434);
#434=PRODUCT_DEFINITION_CONTEXT('',#441,'design');
#435=PRODUCT_DEFINITION_FORMATION_WITH_SPECIFIED_SOURCE('','',#437,
 .NOT_KNOWN.);
#436=PRODUCT_RELATED_PRODUCT_CATEGORY('','',(#437));
#437=PRODUCT('Part 1','Part 1','Part 1',(#439));
#438=PRODUCT_CATEGORY('','');
#439=PRODUCT_CONTEXT('',#441,'mechanical');
#440=APPLICATION_PROTOCOL_DEFINITION('international standard',
'ap242_managed_model_based_3d_engineering',2020,#441);
#441=APPLICATION_CONTEXT('managed model based 3d engineering');
ENDSEC;
END-ISO-10303-21;
